HIERARCHY
ROOT Hips
{
	OFFSET 0.000000 88.474243 0.000000
	CHANNELS 6 Xposition Yposition Zposition Zrotation Yrotation Xrotation 
	JOINT Hips_Spine
	{
		OFFSET 0.000000 0.000000 0.000000
		CHANNELS 3 Zrotation Yrotation Xrotation
		JOINT Spine
		{
			OFFSET 0.005100 8.711998 -0.691000
			CHANNELS 3 Zrotation Yrotation Xrotation
			JOINT Spine1
			{
				OFFSET -0.009200 8.660301 -1.275000
				CHANNELS 3 Zrotation Yrotation Xrotation
				JOINT Spine2
				{
					OFFSET 0.006300 9.852501 -1.857000
					CHANNELS 3 Zrotation Yrotation Xrotation
					JOINT Spine2_Neck
					{
						OFFSET 0.000000 0.000000 0.000000
						CHANNELS 3 Zrotation Yrotation Xrotation
						JOINT Neck
						{
							OFFSET 0.016300 11.420799 -0.263300
							CHANNELS 3 Zrotation Yrotation Xrotation
							End Site #name: Head
							{
								OFFSET -0.019200 9.262405 2.362500
							}
						}
					}
					JOINT Spine2_LeftShoulder
					{
						OFFSET 0.000000 0.000000 0.000000
						CHANNELS 3 Zrotation Yrotation Xrotation
						JOINT LeftShoulder
						{
							OFFSET 5.616900 6.732201 -0.345700
							CHANNELS 3 Zrotation Yrotation Xrotation
							JOINT LeftArm
							{
								OFFSET 10.664888 -0.183372 -2.440700
								CHANNELS 3 Zrotation Yrotation Xrotation
								JOINT LeftForeArm
								{
									OFFSET 27.459126 0.000000 0.000000
									CHANNELS 3 Zrotation Yrotation Xrotation
									End Site #name: LeftHand
									{
										OFFSET 21.306858 0.000000 0.000000
									}
								}
							}
						}
					}
					JOINT Spine2_RightShoulder
					{
						OFFSET 0.000000 0.000000 0.000000
						CHANNELS 3 Zrotation Yrotation Xrotation
						JOINT RightShoulder
						{
							OFFSET -5.580300 6.737503 -0.344400
							CHANNELS 3 Zrotation Yrotation Xrotation
							JOINT RightArm
							{
								OFFSET -10.679335 -0.188484 -2.383900
								CHANNELS 3 Zrotation Yrotation Xrotation
								JOINT RightForeArm
								{
									OFFSET -27.503529 0.000000 0.000000
									CHANNELS 3 Zrotation Yrotation Xrotation
									End Site #name: RightHand
									{
										OFFSET -21.306808 0.000000 0.000000
									}
								}
							}
						}
					}
				}
			}
		}
	}
	JOINT Hips_LeftUpLeg
	{
		OFFSET 0.000000 0.000000 0.000000
		CHANNELS 3 Zrotation Yrotation Xrotation
		JOINT LeftUpLeg
		{
			OFFSET 6.857700 -6.739601 0.312100
			CHANNELS 3 Zrotation Yrotation Xrotation
			JOINT LeftLeg
			{
				OFFSET -0.367590 -34.731552 -4.572400
				CHANNELS 3 Zrotation Yrotation Xrotation
				End Site #name: LeftFoot
				{
					OFFSET 0.367590 -34.656704 -6.067400
				}
			}
		}
	}
	JOINT Hips_RightUpLeg
	{
		OFFSET 0.000000 0.000000 0.000000
		CHANNELS 3 Zrotation Yrotation Xrotation
		JOINT RightUpLeg
		{
			OFFSET -6.876100 -6.733299 0.301000
			CHANNELS 3 Zrotation Yrotation Xrotation
			JOINT RightLeg
			{
				OFFSET 0.347353 -34.795158 -4.515900
				CHANNELS 3 Zrotation Yrotation Xrotation
				End Site #name: RightFoot
				{
					OFFSET -0.347353 -34.589367 -6.070300
				}
			}
		}
	}
}
MOTION
Frames: 16
Frame Time: 0.041667
0.144237 -0.169586 0.297641 1.046023 3.973432 -2.735679 -0.000000 -0.000000 -0.000000 2.324832 -3.515466 8.156405 1.190444 -3.831994 5.150796 0.000000 0.000000 0.000000 0.885685 -0.732066 6.781149 5.891951 1.630428 0.244061 -1.051263 -2.203530 5.496107 -15.487614 -13.814264 7.305461 -66.411153 -53.853517 3.363096 4.009715 -46.644095 14.044841 -0.682450 0.258283 7.233664 -14.475649 16.157191 -5.680535 36.714222 20.788194 -14.852694 22.756458 83.082179 32.403281 -0.000000 0.000000 -0.000000 18.619181 36.435737 -28.536422 -1.062975 -11.781953 15.597516 -0.000000 -0.000000 -0.000000 -3.808437 -8.421474 -67.398308 -2.533447 -0.990887 65.012029 
0.624104 0.079340 0.569762 2.413970 2.200170 -1.538643 -0.000000 -0.000000 -0.000000 4.700512 -6.430636 7.213524 1.589568 -4.350085 4.765175 0.000000 0.000000 0.000000 1.881364 -1.608911 7.267592 7.236547 -0.509004 4.511262 -2.285903 -2.095542 3.233569 -33.036046 -23.030674 16.428445 140.495333 -77.707169 156.729865 10.607330 -25.953487 17.075569 -1.296120 0.535137 8.625424 -34.399380 28.003478 -21.410005 63.231117 35.526885 -9.784370 -3.875802 47.463638 10.099190 -0.000000 0.000000 -0.000000 39.843089 38.179919 -5.453989 -2.366972 -5.515704 0.164133 -0.000000 -0.000000 -0.000000 -11.209795 6.036674 -62.046484 -8.322506 -2.314020 63.937716 
1.241306 0.009033 0.991703 3.085170 12.317234 2.037364 -0.000000 -0.000000 -0.000000 7.570623 -6.714559 9.971159 1.908556 -4.597037 4.267001 0.000000 0.000000 0.000000 2.167472 -2.076381 6.638308 5.577255 -0.480973 6.937269 -2.390693 -2.526247 2.564962 -43.037211 -25.897159 19.120400 80.064394 -53.637962 -155.817742 10.135141 -20.576157 17.283673 -1.563254 1.137209 9.725369 -47.221614 30.098359 -29.593842 74.132718 44.787254 -3.199222 -0.741748 62.798888 14.399559 -0.000000 0.000000 -0.000000 52.579138 46.249777 10.467404 -5.596165 -4.162378 1.662943 -0.000000 -0.000000 -0.000000 -19.204016 15.611726 -73.712595 -13.392256 -4.934935 64.612951 
1.907257 -0.118145 1.401858 2.204153 24.903654 8.032698 -0.000000 -0.000000 -0.000000 8.402099 -6.885659 10.498491 1.945447 -5.241552 3.942367 0.000000 0.000000 0.000000 2.205873 -2.303790 5.828194 5.481690 -1.366860 8.338336 -2.489828 -2.940200 1.795305 -47.498206 -29.435902 22.632804 79.446313 -44.268430 -158.741257 10.031094 -16.289305 17.201195 -1.778522 1.714172 9.889196 -55.373668 30.982518 -35.329975 75.988856 48.797816 1.096128 -0.490720 64.901091 14.724681 -0.000000 -0.000000 -0.000000 58.004733 46.320102 13.937598 -5.003166 -5.856509 1.069269 -0.000000 -0.000000 -0.000000 -26.985927 23.168329 -81.376270 -13.357888 -4.316488 64.118743 
2.669095 -0.260406 1.437987 0.050243 37.445569 12.033577 -0.000000 -0.000000 -0.000000 8.946101 -7.056204 9.463810 2.183673 -5.922666 3.369916 0.000000 0.000000 0.000000 2.533928 -2.397879 4.855563 6.236286 -1.887555 10.401394 -2.354677 -2.985149 0.825948 -50.715702 -31.597515 25.678007 82.370405 -39.737837 -163.828692 8.830266 -16.834139 17.210775 -1.641440 2.479903 9.591410 -60.728305 31.943001 -39.776164 77.222787 52.335637 3.501686 1.892214 72.064214 16.283583 -0.000000 -0.000000 -0.000000 62.713892 46.452343 16.353601 -3.529483 -7.744979 -1.779105 -0.000000 -0.000000 -0.000000 -37.637823 30.473992 -91.226626 -14.002588 -3.446506 64.409198 
3.496894 -0.405816 1.181490 -1.764387 50.103102 14.648697 -0.000000 -0.000000 -0.000000 9.779056 -7.344395 7.649525 2.533035 -6.516503 3.049259 0.000000 0.000000 0.000000 2.763096 -2.285111 4.180255 7.249622 -1.960143 13.768531 -2.307827 -2.696085 0.091778 -53.137122 -33.132060 27.979723 79.422104 -38.158984 -167.187467 8.057576 -16.991320 17.347291 -1.429799 3.205070 9.348259 -64.386700 32.759741 -42.761752 76.250483 54.970637 4.856450 8.927830 79.978479 21.949719 -0.000000 -0.000000 -0.000000 66.476964 45.203858 18.244794 -1.516363 -9.490980 -2.969433 -0.000000 -0.000000 -0.000000 -51.931497 36.716969 -103.960295 -14.361908 -2.647333 66.103037 
4.372528 -0.521906 0.609351 -1.600824 61.899976 18.066409 -0.000000 -0.000000 -0.000000 10.721654 -7.674446 4.604439 2.762912 -6.865423 2.841390 0.000000 0.000000 0.000000 2.794933 -1.968470 3.810061 7.999667 -2.178125 18.891805 -2.435795 -2.159977 -0.161947 -55.613112 -34.194420 29.612938 74.020039 -34.629190 -170.335323 7.960055 -15.866935 17.482992 -1.283488 3.922831 9.219464 -67.234582 33.599230 -44.365691 75.285827 57.210253 6.689480 39.328394 86.727874 51.213953 -0.000000 -0.000000 -0.000000 69.626790 40.716443 21.243451 0.375155 -10.787917 -2.711691 -0.000000 -0.000000 -0.000000 -64.867115 40.377103 -115.424997 -14.643025 -1.924671 67.486667 
5.310576 -0.635686 -0.282692 2.113400 71.974111 23.887200 -0.000000 -0.000000 -0.000000 11.868379 -7.936087 0.771586 2.904021 -7.026948 2.648353 0.000000 0.000000 0.000000 2.677586 -1.583875 3.556875 9.056271 -2.593138 25.686536 -2.614739 -1.480446 -0.020119 -58.430543 -34.915254 31.034940 67.754076 -32.157973 -173.558852 8.060438 -14.166203 17.689034 -1.221447 4.631133 8.966679 -70.277059 34.429911 -46.504216 75.099180 59.251815 8.829168 147.852724 85.618514 159.019758 -0.000000 -0.000000 -0.000000 72.458538 36.194919 24.673700 2.063773 -11.631948 -1.194232 -0.000000 -0.000000 -0.000000 -77.130427 41.660128 -126.263185 -14.764700 -0.974640 68.709571 
6.295488 -0.750793 -1.425836 15.015806 80.449520 38.135992 -0.000000 -0.000000 -0.000000 13.428231 -8.127138 -2.443119 3.006205 -7.156844 2.573191 0.000000 0.000000 0.000000 2.543958 -1.164303 3.287883 10.291858 -3.199822 31.931954 -2.822548 -0.667092 0.381101 -61.794846 -35.080856 32.582900 59.270510 -30.304236 -175.654373 8.191960 -11.131918 17.570773 -1.169557 5.535986 8.826338 -74.659423 34.732538 -50.062711 75.586733 61.524241 11.371803 165.290001 79.376207 175.905341 -0.000000 -0.000000 -0.000000 75.166150 31.948664 28.396394 3.495961 -12.421409 0.163839 -0.000000 0.000000 -0.000000 -87.353592 42.521776 -135.009609 -15.041784 -0.093222 69.043740 
7.315037 -0.860579 -2.808400 70.159928 85.501092 94.413131 -0.000000 -0.000000 -0.000000 14.620172 -8.129716 -5.592737 2.989036 -7.279413 2.484411 0.000000 0.000000 0.000000 2.448228 -0.887858 3.205423 11.023946 -4.559476 35.673147 -3.221427 -0.002028 1.077254 -65.817662 -34.914371 34.323279 50.873028 -28.162749 -176.991137 8.248643 -8.402708 17.333311 -1.232368 6.334647 9.045317 -79.569014 34.387114 -53.911809 76.781728 63.090302 14.200990 168.604441 74.366439 178.859370 -0.000000 -0.000000 -0.000000 77.645428 28.028433 32.457228 4.788837 -13.064649 0.457974 -0.000000 0.000000 -0.000000 -94.952429 43.342352 -140.638240 -15.383830 0.688190 68.541019 
8.361917 -0.952232 -4.440850 131.089321 81.827407 156.500046 -0.000000 -0.000000 -0.000000 15.401077 -8.109764 -8.296127 2.797322 -7.404002 2.475350 0.000000 0.000000 0.000000 2.324451 -0.699325 3.417120 11.763513 -6.119266 37.419890 -3.821182 0.546808 1.852343 -69.769774 -34.929363 36.163500 44.672626 -26.268121 -178.845146 8.270375 -6.245566 16.921636 -1.501283 6.968943 9.215689 -84.075049 33.589583 -57.511631 80.028666 65.098694 18.914763 169.832279 70.090415 179.953366 -0.000000 -0.000000 -0.000000 79.603538 24.068589 36.329643 6.262046 -13.667502 -1.081384 -0.000000 0.000000 -0.000000 -101.495715 43.560009 -144.814717 -15.493630 1.465484 67.732119 
9.433517 -1.018078 -6.300688 144.347092 76.572176 170.614083 -0.000000 -0.000000 -0.000000 16.062591 -8.156186 -10.464301 2.529737 -7.559553 2.543237 0.000000 0.000000 0.000000 2.087971 -0.530214 4.107615 12.732897 -7.833554 37.401618 -4.443091 0.965409 2.634001 -73.139157 -34.694838 37.515875 39.713713 -23.734031 179.651489 8.236308 -4.730880 16.409764 -1.945043 7.443466 9.174467 -87.863587 32.301513 -60.509578 85.272795 67.350690 24.683619 170.520907 65.836274 -179.349307 -0.000000 -0.000000 -0.000000 80.562407 19.775369 39.421505 7.812146 -14.024480 -4.235157 -0.000000 0.000000 -0.000000 -106.749952 43.616641 -147.911199 -15.035337 2.160129 67.529485 
10.529910 -1.074013 -8.350012 149.217478 72.697858 175.782873 -0.000000 -0.000000 -0.000000 16.599391 -8.126046 -12.034113 2.312797 -7.699591 2.632534 0.000000 0.000000 0.000000 1.836428 -0.358495 5.099851 13.494753 -9.515055 35.275299 -4.969768 1.224616 2.946602 -75.579727 -34.179070 38.091164 35.869055 -20.942011 178.832279 8.015956 -4.246397 15.915724 -2.404958 7.746412 9.190454 -90.828764 31.171341 -62.277476 92.351796 69.678037 31.196089 170.848191 62.051702 -178.954597 -0.000000 -0.000000 -0.000000 80.839147 15.840520 42.002241 9.133780 -14.181772 -7.914013 -0.000000 0.000000 -0.000000 -111.577001 43.564174 -150.643734 -14.543663 2.731853 67.330739 
11.657370 -1.136800 -10.551744 152.378491 69.655526 179.080623 -0.000000 -0.000000 -0.000000 17.144397 -8.021105 -13.073826 2.206825 -7.859150 2.663830 0.000000 0.000000 0.000000 1.524458 -0.311129 6.041543 14.124819 -10.895706 33.207814 -5.366370 1.345648 3.100189 -76.811573 -33.476435 37.883434 32.424870 -18.195894 178.855738 7.605672 -4.685341 15.459897 -2.768998 7.909042 9.284424 -93.068079 30.169623 -63.596900 101.941842 71.503130 39.072796 170.796835 59.292478 -178.991812 -0.000000 -0.000000 -0.000000 80.688530 12.523745 44.211148 10.210242 -14.186120 -11.542478 -0.000000 0.000000 -0.000000 -115.528151 43.381646 -152.830390 -14.131592 3.172114 67.337090 
12.812527 -1.217167 -12.876868 154.965068 66.818560 -178.120654 -0.000000 -0.000000 -0.000000 17.675312 -7.892185 -13.575733 2.225985 -8.032629 2.689773 0.000000 0.000000 0.000000 1.211364 -0.331281 6.909292 14.993100 -11.434333 32.100837 -5.603390 1.313479 3.149460 -76.997806 -32.569580 36.981475 28.786811 -15.151851 179.598273 6.800448 -7.803778 15.192768 -3.034813 7.976446 9.410303 -94.574964 29.258179 -64.506145 115.105899 72.254403 48.755941 170.784298 57.268500 -179.031093 -0.000000 -0.000000 -0.000000 80.413624 10.144719 46.316130 11.199984 -14.070171 -15.222645 -0.000000 0.000000 -0.000000 -118.590971 43.274120 -154.425388 -13.805047 3.476711 67.381672 
13.979874 -1.322508 -15.289255 157.129948 64.522994 -175.697572 -0.000000 -0.000000 -0.000000 18.152455 -7.810129 -13.677952 2.312954 -8.161718 2.434448 0.000000 0.000000 0.000000 0.965672 -0.446341 7.521671 16.002725 -11.983811 32.085626 -5.683947 1.162625 3.150613 -76.352202 -31.474439 35.703529 27.436533 -10.200660 -177.900097 5.884736 -12.867980 15.233249 -3.236999 7.903138 9.558194 -95.322558 28.426374 -64.952165 124.319770 71.999363 55.352620 170.840528 55.529626 -178.985442 -0.000000 -0.000000 0.000000 80.033159 8.595334 48.304366 12.087003 -13.801343 -19.048747 -0.000000 0.000000 -0.000000 -120.679977 43.340575 -155.319066 -13.572607 3.673596 67.479176 
